<mxfile host="app.diagrams.net" modified="2024-01-28T20:15:05.058Z" agent="Mozilla/5.0 (Macintosh; Intel Mac OS X 10_15_7) AppleWebKit/537.36 (KHTML, like Gecko) Chrome/121.0.0.0 Safari/537.36" version="23.0.2" etag="e3uowl0xZ5eTl93zbY1I" type="github">
  <diagram name="Page-1" id="5Sw0mt2Ui1cbXPdswmmH">
    <mxGraphModel>
      <root>
        <mxCell id="0" />
        <mxCell id="1" parent="0" />
      </root>
    </mxGraphModel>
  </diagram>
</mxfile>
